<svg width="194" height="47" viewBox="0 0 194 47" fill="none" xmlns="http://www.w3.org/2000/svg">
<path d="M42.5057 14.5455H46.1534V26.7159C46.1534 27.8409 45.9006 28.8182 45.3949 29.6477C44.8949 30.4773 44.1989 31.1165 43.3068 31.5653C42.4148 32.0142 41.3778 32.2386 40.196 32.2386C39.1449 32.2386 38.1903 32.054 37.3324 31.6847C36.4801 31.3097 35.804 30.7415 35.304 29.9801C34.804 29.2131 34.5568 28.25 34.5625 27.0909H38.2358C38.2472 27.5511 38.3409 27.946 38.517 28.2756C38.6989 28.5994 38.946 28.8494 39.2585 29.0256C39.5767 29.196 39.9517 29.2812 40.3835 29.2812C40.8381 29.2812 41.2216 29.1847 41.5341 28.9915C41.8523 28.7926 42.0938 28.5028 42.2585 28.1222C42.4233 27.7415 42.5057 27.2727 42.5057 26.7159V14.5455ZM65.2443 23.2727C65.2443 25.1761 64.8835 26.7955 64.1619 28.1307C63.446 29.4659 62.4688 30.4858 61.2301 31.1903C59.9972 31.8892 58.6108 32.2386 57.071 32.2386C55.5199 32.2386 54.1278 31.8864 52.8949 31.1818C51.6619 30.4773 50.6875 29.4574 49.9716 28.1222C49.2557 26.7869 48.8977 25.1705 48.8977 23.2727C48.8977 21.3693 49.2557 19.75 49.9716 18.4148C50.6875 17.0795 51.6619 16.0625 52.8949 15.3636C54.1278 14.6591 55.5199 14.3068 57.071 14.3068C58.6108 14.3068 59.9972 14.6591 61.2301 15.3636C62.4688 16.0625 63.446 17.0795 64.1619 18.4148C64.8835 19.75 65.2443 21.3693 65.2443 23.2727ZM61.5028 23.2727C61.5028 22.0398 61.3182 21 60.9489 20.1534C60.5852 19.3068 60.071 18.6648 59.4062 18.2273C58.7415 17.7898 57.9631 17.571 57.071 17.571C56.179 17.571 55.4006 17.7898 54.7358 18.2273C54.071 18.6648 53.554 19.3068 53.1847 20.1534C52.821 21 52.6392 22.0398 52.6392 23.2727C52.6392 24.5057 52.821 25.5455 53.1847 26.392C53.554 27.2386 54.071 27.8807 54.7358 28.3182C55.4006 28.7557 56.179 28.9744 57.071 28.9744C57.9631 28.9744 58.7415 28.7557 59.4062 28.3182C60.071 27.8807 60.5852 27.2386 60.9489 26.392C61.3182 25.5455 61.5028 24.5057 61.5028 23.2727ZM67.978 32V14.5455H74.9666C76.2507 14.5455 77.3217 14.7358 78.1797 15.1165C79.0376 15.4972 79.6825 16.0256 80.1143 16.7017C80.5462 17.3722 80.7621 18.1449 80.7621 19.0199C80.7621 19.7017 80.6257 20.3011 80.353 20.8182C80.0803 21.3295 79.7053 21.75 79.228 22.0795C78.7564 22.4034 78.2166 22.6335 77.6087 22.7699V22.9403C78.2734 22.9687 78.8956 23.1562 79.4751 23.5028C80.0604 23.8494 80.5348 24.3352 80.8984 24.9602C81.2621 25.5795 81.4439 26.3182 81.4439 27.1761C81.4439 28.1023 81.2138 28.929 80.7536 29.6562C80.299 30.3778 79.6257 30.9489 78.7337 31.3693C77.8416 31.7898 76.7422 32 75.4354 32H67.978ZM71.6683 28.983H74.6768C75.7053 28.983 76.4553 28.7869 76.9268 28.3949C77.3984 27.9972 77.6342 27.4687 77.6342 26.8097C77.6342 26.3267 77.5178 25.9006 77.2848 25.5312C77.0518 25.1619 76.7195 24.8722 76.2876 24.6619C75.8615 24.4517 75.353 24.3466 74.7621 24.3466H71.6683V28.983ZM71.6683 21.8494H74.4041C74.9098 21.8494 75.3587 21.7614 75.7507 21.5852C76.1484 21.4034 76.4609 21.1477 76.6882 20.8182C76.9212 20.4886 77.0376 20.0938 77.0376 19.6335C77.0376 19.0028 76.8132 18.4943 76.3643 18.108C75.9212 17.7216 75.2905 17.5284 74.4723 17.5284H71.6683V21.8494Z" fill="url(#paint0_linear_339_1155)"/>
<path d="M83.8452 32V14.5455H87.5355V21.7472H95.027V14.5455H98.7088V32H95.027V24.7898H87.5355V32H83.8452ZM112.533 14.5455H116.223V25.8807C116.223 27.1534 115.919 28.267 115.311 29.2216C114.709 30.1761 113.865 30.9205 112.78 31.4545C111.695 31.983 110.43 32.2472 108.987 32.2472C107.538 32.2472 106.271 31.983 105.186 31.4545C104.101 30.9205 103.257 30.1761 102.655 29.2216C102.053 28.267 101.751 27.1534 101.751 25.8807V14.5455H105.442V25.5653C105.442 26.2301 105.587 26.821 105.876 27.3381C106.172 27.8551 106.587 28.2614 107.121 28.5568C107.655 28.8523 108.277 29 108.987 29C109.703 29 110.325 28.8523 110.854 28.5568C111.388 28.2614 111.8 27.8551 112.089 27.3381C112.385 26.821 112.533 26.2301 112.533 25.5653V14.5455ZM119.259 32V14.5455H126.248C127.532 14.5455 128.603 14.7358 129.461 15.1165C130.319 15.4972 130.964 16.0256 131.396 16.7017C131.827 17.3722 132.043 18.1449 132.043 19.0199C132.043 19.7017 131.907 20.3011 131.634 20.8182C131.362 21.3295 130.987 21.75 130.509 22.0795C130.038 22.4034 129.498 22.6335 128.89 22.7699V22.9403C129.555 22.9687 130.177 23.1562 130.756 23.5028C131.342 23.8494 131.816 24.3352 132.18 24.9602C132.543 25.5795 132.725 26.3182 132.725 27.1761C132.725 28.1023 132.495 28.929 132.035 29.6562C131.58 30.3778 130.907 30.9489 130.015 31.3693C129.123 31.7898 128.023 32 126.717 32H119.259ZM122.95 28.983H125.958C126.987 28.983 127.737 28.7869 128.208 28.3949C128.68 27.9972 128.915 27.4687 128.915 26.8097C128.915 26.3267 128.799 25.9006 128.566 25.5312C128.333 25.1619 128.001 24.8722 127.569 24.6619C127.143 24.4517 126.634 24.3466 126.043 24.3466H122.95V28.983ZM122.95 21.8494H125.685C126.191 21.8494 126.64 21.7614 127.032 21.5852C127.43 21.4034 127.742 21.1477 127.969 20.8182C128.202 20.4886 128.319 20.0938 128.319 19.6335C128.319 19.0028 128.094 18.4943 127.646 18.108C127.202 17.7216 126.572 17.5284 125.754 17.5284H122.95V21.8494Z" fill="url(#paint1_linear_339_1155)"/>
<path d="M140.973 32H136.132V14.5455H141.348C142.984 14.5455 144.385 14.892 145.55 15.5852C146.714 16.2784 147.607 17.2727 148.226 18.5682C148.851 19.858 149.161 21.4062 149.155 23.2131C149.149 25.0597 148.825 26.6392 148.183 27.9517C147.541 29.2585 146.612 30.2614 145.396 30.9602C144.18 31.6534 142.706 32 140.973 32ZM137.197 31.0114H140.93C142.487 31.0114 143.8 30.7017 144.868 30.0824C145.936 29.4574 146.743 28.5625 147.288 27.3977C147.839 26.233 148.112 24.8381 148.107 23.2131C148.107 21.6108 147.842 20.2386 147.314 19.0966C146.786 17.9489 146.016 17.0682 145.004 16.4545C143.999 15.8409 142.766 15.5341 141.305 15.5341H137.197V31.0114ZM153.312 32V14.5455H163.028V15.5341H154.377V22.7699H162.508V23.7585H154.377V31.0114H163.232V32H153.312ZM166.771 14.5455L172.499 30.6278H172.618L178.345 14.5455H179.47L173.172 32H171.945L165.646 14.5455H166.771Z" fill="black"/>
<path d="M17.2188 21.6875C17.2188 21.9279 17.1233 22.1584 16.9533 22.3283C16.7834 22.4983 16.5529 22.5938 16.3125 22.5938H12.6875C12.4471 22.5938 12.2166 22.4983 12.0467 22.3283C11.8767 22.1584 11.7812 21.9279 11.7812 21.6875C11.7812 21.4471 11.8767 21.2166 12.0467 21.0467C12.2166 20.8767 12.4471 20.7812 12.6875 20.7812H16.3125C16.5529 20.7812 16.7834 20.8767 16.9533 21.0467C17.1233 21.2166 17.2188 21.4471 17.2188 21.6875ZM26.2812 17.1562V31.6562C26.2812 32.137 26.0903 32.598 25.7504 32.9379C25.4105 33.2778 24.9495 33.4688 24.4688 33.4688H4.53125C4.05055 33.4688 3.58953 33.2778 3.24962 32.9379C2.90971 32.598 2.71875 32.137 2.71875 31.6562V17.1562C2.71875 16.6755 2.90971 16.2145 3.24962 15.8746C3.58953 15.5347 4.05055 15.3438 4.53125 15.3438H9.0625V14.4375C9.0625 13.7164 9.34894 13.0249 9.8588 12.5151C10.3687 12.0052 11.0602 11.7188 11.7812 11.7188H17.2188C17.9398 11.7188 18.6313 12.0052 19.1412 12.5151C19.6511 13.0249 19.9375 13.7164 19.9375 14.4375V15.3438H24.4688C24.9495 15.3438 25.4105 15.5347 25.7504 15.8746C26.0903 16.2145 26.2812 16.6755 26.2812 17.1562ZM10.875 15.3438H18.125V14.4375C18.125 14.1971 18.0295 13.9666 17.8596 13.7967C17.6896 13.6267 17.4591 13.5312 17.2188 13.5312H11.7812C11.5409 13.5312 11.3104 13.6267 11.1404 13.7967C10.9705 13.9666 10.875 14.1971 10.875 14.4375V15.3438ZM24.4688 21.8699V17.1562H4.53125V21.8699C7.5901 23.5349 11.0174 24.4069 14.5 24.4062C17.9826 24.4069 21.4099 23.5349 24.4688 21.8699Z" fill="url(#paint2_linear_339_1155)"/>
<defs>
<linearGradient id="paint0_linear_339_1155" x1="34" y1="23.5" x2="194" y2="23.5" gradientUnits="userSpaceOnUse">
<stop stop-color="#343434"/>
<stop offset="1" stop-color="#EFEFEF"/>
</linearGradient>
<linearGradient id="paint1_linear_339_1155" x1="34" y1="23.5" x2="194" y2="23.5" gradientUnits="userSpaceOnUse">
<stop stop-color="#0260FF"/>
<stop offset="1" stop-color="#013A99"/>
</linearGradient>
<linearGradient id="paint2_linear_339_1155" x1="14.5" y1="11.7187" x2="14.5" y2="33.4688" gradientUnits="userSpaceOnUse">
<stop/>
<stop offset="1" stop-color="#013A99"/>
</linearGradient>
</defs>
</svg>
