<svg width="12" height="16" viewBox="0 0 12 16" fill="none" xmlns="http://www.w3.org/2000/svg">
<path d="M6.057 0C2.7775 0 0 2.79359 0 6.10219C0 9.5673 3.2195 13.1109 5.385 15.6015C5.3935 15.6115 5.7435 16 6.1745 16H6.2125C6.644 16 6.9915 15.6115 7 15.6015C9.032 13.2654 12 9.41279 12 6.10219C12 2.79309 9.8335 0 6.057 0ZM6.2575 14.9305C6.24 14.948 6.2145 14.9675 6.192 14.984C6.169 14.968 6.144 14.948 6.1255 14.9305L5.864 14.6295C3.811 12.2744 0.9995 9.04878 0.9995 6.10169C0.9995 3.3356 3.3155 0.999031 6.0565 0.999031C9.471 0.999031 10.9995 3.56161 10.9995 6.10169C10.9995 8.33876 9.404 11.3099 6.2575 14.9305ZM6.0175 3.02759C4.361 3.02759 3.0175 4.37064 3.0175 6.02769C3.0175 7.68474 4.361 9.02778 6.0175 9.02778C7.674 9.02778 9.0175 7.68424 9.0175 6.02769C9.0175 4.37114 7.6745 3.02759 6.0175 3.02759ZM6.0175 8.02775C4.9145 8.02775 3.9945 7.10872 3.9945 6.00569C3.9945 4.90265 4.8915 4.00562 5.9945 4.00562C7.098 4.00562 7.9945 4.90265 7.9945 6.00569C7.995 7.10872 7.121 8.02775 6.0175 8.02775Z" fill="#3B3B3B"/>
</svg>
