<svg width="104" height="23" viewBox="0 0 104 23" fill="none" xmlns="http://www.w3.org/2000/svg">
<path d="M104 10.0438V8.21484H101.729V5.37145L101.652 5.39499L99.5188 6.04771L99.4767 6.06049V8.21494H96.1096V7.01472C96.1096 6.45586 96.2346 6.02819 96.4808 5.74298C96.7254 5.46118 97.0752 5.31792 97.5214 5.31792C97.8421 5.31792 98.1742 5.39348 98.5084 5.54247L98.5922 5.5799V3.65372L98.5528 3.63923C98.241 3.52716 97.817 3.47072 97.2913 3.47072C96.6288 3.47072 96.0269 3.61489 95.502 3.9006C94.9767 4.18672 94.5635 4.59518 94.2741 5.1145C93.9856 5.63322 93.8393 6.23232 93.8393 6.89531V8.21484H92.2578V10.0438H93.8393V17.7491H96.1096V10.0438H99.4767V14.9404C99.4767 16.957 100.428 17.9789 102.304 17.9789C102.612 17.9789 102.937 17.9428 103.268 17.8721C103.605 17.7995 103.835 17.7269 103.97 17.6495L104 17.6318V15.7859L103.908 15.8469C103.784 15.929 103.631 15.9961 103.451 16.046C103.27 16.0968 103.119 16.1223 103.003 16.1223C102.563 16.1223 102.238 16.0039 102.036 15.7702C101.832 15.5343 101.729 15.122 101.729 14.5451V10.0438H104ZM87.1877 16.1226C86.3636 16.1226 85.7139 15.8493 85.2561 15.3111C84.7954 14.7701 84.562 13.9989 84.562 13.019C84.562 12.008 84.7954 11.2168 85.2563 10.6663C85.7144 10.1194 86.3579 9.84182 87.1692 9.84182C87.9564 9.84182 88.5831 10.1069 89.032 10.6302C89.4831 11.1561 89.712 11.941 89.712 12.9638C89.712 13.9991 89.4968 14.7944 89.0722 15.3264C88.6506 15.8544 88.0166 16.1226 87.1877 16.1226ZM87.2886 7.98516C85.7164 7.98516 84.4677 8.44583 83.5774 9.35439C82.6876 10.2631 82.2365 11.5205 82.2365 13.0922C82.2365 14.5849 82.6769 15.7857 83.5455 16.6604C84.4141 17.5355 85.5962 17.9787 87.0587 17.9787C88.5827 17.9787 89.8065 17.5116 90.6965 16.5905C91.5863 15.6704 92.0371 14.4248 92.0371 12.8898C92.0371 11.3737 91.6141 10.1641 90.7794 9.29513C89.9442 8.42581 88.7696 7.98516 87.2886 7.98516ZM78.576 7.98516C77.5066 7.98516 76.622 8.2587 75.9462 8.79804C75.2663 9.34061 74.9214 10.0522 74.9214 10.9133C74.9214 11.3609 74.9959 11.7584 75.1424 12.0957C75.2897 12.434 75.5178 12.7319 75.8208 12.9819C76.1215 13.2299 76.5857 13.4896 77.2008 13.7539C77.7179 13.9667 78.1036 14.1467 78.3485 14.2886C78.588 14.4276 78.7579 14.5673 78.8539 14.7034C78.9471 14.8366 78.9944 15.0189 78.9944 15.2439C78.9944 15.8844 78.5147 16.1961 77.5277 16.1961C77.1616 16.1961 76.744 16.1197 76.2865 15.969C75.8323 15.8205 75.4037 15.6032 75.0155 15.3245L74.9212 15.2569V17.4427L74.9558 17.4588C75.2771 17.6071 75.6821 17.7322 76.1595 17.8305C76.6359 17.929 77.0688 17.9791 77.4449 17.9791C78.6054 17.9791 79.5399 17.7043 80.2218 17.1617C80.908 16.6154 81.2558 15.8871 81.2558 14.9962C81.2558 14.3535 81.0686 13.8024 80.6996 13.358C80.3331 12.9171 79.6969 12.5124 78.8097 12.1546C78.1029 11.8709 77.65 11.6354 77.4632 11.4546C77.2831 11.28 77.1917 11.033 77.1917 10.7202C77.1917 10.4429 77.3046 10.2208 77.5362 10.0409C77.7698 9.86013 78.0948 9.76818 78.5025 9.76818C78.8807 9.76818 79.2678 9.82794 79.6527 9.94504C80.0373 10.0621 80.3751 10.219 80.6571 10.4108L80.7499 10.4742V8.40076L80.7143 8.38546C80.4541 8.27389 80.111 8.17842 79.6943 8.10095C79.2795 8.02399 78.9033 7.98516 78.576 7.98516ZM69.0028 16.1226C68.1789 16.1226 67.529 15.8493 67.0712 15.3111C66.6105 14.7701 66.3775 13.9991 66.3775 13.019C66.3775 12.008 66.6108 11.2168 67.0717 10.6663C67.5295 10.1194 68.1729 9.84182 68.9845 9.84182C69.7715 9.84182 70.3981 10.1069 70.8471 10.6302C71.2983 11.1561 71.5272 11.941 71.5272 12.9638C71.5272 13.9991 71.3118 14.7944 70.8873 15.3264C70.4656 15.8544 69.8319 16.1226 69.0028 16.1226ZM69.104 7.98516C67.5314 7.98516 66.2826 8.44583 65.3927 9.35439C64.503 10.2631 64.0516 11.5205 64.0516 13.0922C64.0516 14.5855 64.4922 15.7857 65.3609 16.6604C66.2295 17.5355 67.4115 17.9787 68.874 17.9787C70.3977 17.9787 71.6219 17.5116 72.5118 16.5905C73.4015 15.6704 73.8525 14.4248 73.8525 12.8898C73.8525 11.3737 73.4294 10.1641 72.5944 9.29513C71.7591 8.42581 70.5847 7.98516 69.104 7.98516ZM60.6053 9.86596V8.21484H58.3626V17.7489H60.6053V12.8718C60.6053 12.0425 60.7933 11.3613 61.1643 10.8467C61.5306 10.3382 62.0188 10.0806 62.6147 10.0806C62.8168 10.0806 63.0435 10.1139 63.2891 10.1798C63.5322 10.2452 63.7082 10.3164 63.812 10.3912L63.9063 10.4595V8.19854L63.87 8.18295C63.6611 8.09421 63.3657 8.04944 62.9918 8.04944C62.4282 8.04944 61.9239 8.23053 61.4919 8.58708C61.1127 8.90046 60.8387 9.33014 60.6291 9.86596H60.6053ZM54.3463 7.98516C53.3175 7.98516 52.3997 8.20578 51.6191 8.6407C50.8369 9.07662 50.232 9.69896 49.8204 10.4903C49.4107 11.2798 49.2026 12.2019 49.2026 13.2303C49.2026 14.1311 49.4043 14.9578 49.803 15.6864C50.2019 16.4161 50.7665 16.9871 51.4812 17.3831C52.1949 17.7785 53.0198 17.979 53.9331 17.979C54.9989 17.979 55.9088 17.766 56.6384 17.3457L56.6679 17.3288V15.2742L56.5736 15.343C56.2431 15.5837 55.8738 15.7759 55.4764 15.9143C55.0801 16.0527 54.7187 16.1226 54.4018 16.1226C53.5218 16.1226 52.8153 15.8472 52.3026 15.3044C51.7887 14.7608 51.5281 13.9975 51.5281 13.037C51.5281 12.0705 51.7998 11.2876 52.3353 10.7099C52.8693 10.134 53.577 9.84182 54.4388 9.84182C55.1759 9.84182 55.8942 10.0914 56.5738 10.5844L56.6679 10.6527V8.48778L56.6375 8.47068C56.3818 8.32752 56.033 8.20931 55.6 8.11967C55.1688 8.03023 54.747 7.98516 54.3463 7.98516ZM47.658 8.21494H45.4154V17.7489H47.658V8.21494ZM46.5596 4.15342C46.1905 4.15342 45.8686 4.27908 45.6041 4.52808C45.3385 4.77778 45.2038 5.09217 45.2038 5.4632C45.2038 5.82839 45.3369 6.13705 45.6 6.38011C45.8613 6.62247 46.1843 6.7453 46.5597 6.7453C46.9351 6.7453 47.2592 6.62247 47.5237 6.38051C47.7899 6.13705 47.9249 5.82849 47.9249 5.4632C47.9249 5.10514 47.7935 4.79397 47.5347 4.53814C47.276 4.2828 46.9479 4.15342 46.5596 4.15342ZM40.964 7.51151V17.7489H43.2528V4.44528H40.085L36.0586 14.3268L32.1512 4.44528H28.8545V17.7488H31.0053V7.5105H31.0792L35.2053 17.7489H36.8284L40.8901 7.51151H40.964Z" fill="#706D6E"/>
<path d="M10.5502 10.5502H0V0H10.5502V10.5502Z" fill="#F1511B"/>
<path d="M22.1985 10.5502H11.6484V0H22.1985V10.5502Z" fill="#80CC28"/>
<path d="M10.5499 22.2034H0V11.6533H10.5499V22.2034Z" fill="#00ADEF"/>
<path d="M22.1985 22.2034H11.6484V11.6533H22.1985V22.2034Z" fill="#FBBC09"/>
</svg>
