<svg width="14" height="17" viewBox="0 0 14 17" fill="none" xmlns="http://www.w3.org/2000/svg">
<path d="M7.09985 7.1001C8.78435 7.1001 10.1499 5.73454 10.1499 4.05005C10.1499 2.36555 8.78435 1 7.09985 1C5.41536 1 4.0498 2.36555 4.0498 4.05005C4.0498 5.73454 5.41536 7.1001 7.09985 7.1001Z" stroke="#3B3B3B"/>
<path d="M13.1983 13.1995C13.2002 13.0743 13.2002 12.9471 13.2002 12.8182C13.2002 10.9232 10.4691 9.38693 7.1001 9.38693C3.73111 9.38693 1 10.9232 1 12.8182C1 14.7133 1 16.2495 7.1001 16.2495C8.80126 16.2495 10.028 16.1301 10.9127 15.9166" stroke="#3B3B3B" stroke-linecap="round"/>
</svg>
