<svg width="17" height="17" viewBox="0 0 17 17" fill="none" xmlns="http://www.w3.org/2000/svg">
<path d="M14.0241 16.5901H2.97589C1.41779 16.5901 0.15 15.3223 0.15 13.7642V5.8819C0.15 4.3238 1.41779 3.05601 2.97589 3.05601H14.0241C15.5822 3.05601 16.85 4.3238 16.85 5.8819V13.7642C16.85 15.3223 15.5822 16.5901 14.0241 16.5901ZM2.97589 4.48881C2.20768 4.48881 1.58281 5.11369 1.58281 5.8819V13.7642C1.58281 14.5324 2.20768 15.1573 2.97589 15.1573H14.0241C14.7923 15.1573 15.4172 14.5324 15.4172 13.7642V5.8819C15.4172 5.11369 14.7923 4.48881 14.0241 4.48881H2.97589Z" fill="#3B3B3B" stroke="#F2F7FF" stroke-width="0.3"/>
<path d="M16.0754 8.99171H0.866404C0.47086 8.99171 0.15 8.67085 0.15 8.27531C0.15 7.87977 0.47086 7.55891 0.866404 7.55891H16.0754C16.471 7.55891 16.7918 7.87977 16.7918 8.27531C16.7918 8.67089 16.4712 8.99171 16.0754 8.99171Z" fill="#3B3B3B" stroke="#F2F7FF" stroke-width="0.3"/>
<path d="M10.0835 1.76796V1.61796H9.93347H6.95937H6.80937V1.76796V3.77158C6.80937 4.16712 6.48851 4.48798 6.09297 4.48798C5.69742 4.48798 5.37656 4.16712 5.37656 3.77158V1.75872C5.37656 0.891068 6.08274 0.185156 6.95012 0.185156H9.94272C10.8104 0.185156 11.5163 0.891333 11.5163 1.75872V3.77158C11.5163 4.16738 11.1955 4.48798 10.7999 4.48798C10.4043 4.48798 10.0835 4.16712 10.0835 3.77158V1.76796Z" fill="#3B3B3B" stroke="#F2F7FF" stroke-width="0.3"/>
<path d="M11.8977 10.5402C11.5021 10.5402 11.1813 10.2193 11.1813 9.8238V8.27531C11.1813 7.87977 11.5021 7.55891 11.8977 7.55891C12.2932 7.55891 12.6141 7.87977 12.6141 8.27531V9.8235C12.6141 10.2194 12.2932 10.5402 11.8977 10.5402Z" fill="#3B3B3B" stroke="#F2F7FF" stroke-width="0.3"/>
<path d="M5.12617 10.5402C4.73063 10.5402 4.40977 10.2193 4.40977 9.8238V8.27531C4.40977 7.87977 4.73063 7.55891 5.12617 7.55891C5.52171 7.55891 5.84257 7.87977 5.84257 8.27531V9.8235C5.84257 10.2194 5.52168 10.5402 5.12617 10.5402Z" fill="#3B3B3B" stroke="#F2F7FF" stroke-width="0.3"/>
</svg>
