<svg width="94" height="23" viewBox="0 0 94 23" fill="none" xmlns="http://www.w3.org/2000/svg">
<path d="M83.8858 7.64143C84.4177 7.64143 84.8555 7.36489 84.9147 7.00761L85.4398 1.06887C85.4398 0.481882 84.7521 0 83.8875 0C83.0238 0 82.3368 0.48188 82.3368 1.06897L82.8616 7.00761C82.9193 7.36479 83.3571 7.64143 83.8876 7.64143H83.8858ZM80.6762 9.49638C80.943 9.03632 80.9228 8.51926 80.6416 8.28956L75.7603 4.86543C75.2528 4.57151 74.4918 4.92529 74.06 5.67428C73.6266 6.42232 73.7034 7.25777 74.2096 7.55179L79.6146 10.0684C79.9525 10.1937 80.4132 9.95261 80.6779 9.49288L80.6762 9.49638ZM87.0984 9.4932C87.3648 9.95293 87.8231 10.1941 88.1613 10.0687L93.5664 7.55211C94.0757 7.2582 94.1481 6.42264 93.7187 5.6746C93.2847 4.92635 92.5224 4.57183 92.0163 4.86574L87.1346 8.28987C86.8555 8.51926 86.8348 9.03675 87.1001 9.49669L87.0984 9.4932ZM83.8858 15.0598C84.4177 15.0598 84.8555 15.334 84.9147 15.6916L85.4398 21.6295C85.4398 22.2183 84.7521 22.6991 83.8875 22.6991C83.0238 22.6991 82.3368 22.2183 82.3368 21.6295L82.8616 15.6916C82.9193 15.334 83.3571 15.0598 83.8876 15.0598H83.8858ZM87.0984 13.2045C87.3648 12.7435 87.8231 12.5044 88.1613 12.6311L93.5664 15.1461C94.0757 15.4403 94.1481 16.2766 93.7187 17.0253C93.2847 17.7711 92.5224 18.1266 92.0163 17.8331L87.1346 14.4121C86.8555 14.1809 86.8348 13.6631 87.1001 13.2035H87.098M80.6762 13.2038C80.943 13.6631 80.9228 14.1809 80.6416 14.4126L75.7603 17.8334C75.2528 18.1269 74.4918 17.7714 74.06 17.0256C73.6266 16.2769 73.7034 15.4406 74.2096 15.1464L79.6146 12.6315C79.9525 12.5047 80.4132 12.7438 80.6779 13.2049H80.6762" fill="#FDBB30"/>
<path d="M53.0961 14.4016C53.0961 14.5838 53.0799 14.7718 53.03 14.9369C52.8229 15.6225 52.113 16.2023 51.2249 16.2023C50.4844 16.2023 49.8963 15.7816 49.8963 14.8932C49.8963 13.5335 51.3929 13.158 53.0965 13.1674L53.0961 14.4015V14.4016ZM55.7682 12.032C55.7682 9.78992 54.8102 7.81705 51.5731 7.81705C49.9114 7.81705 48.5926 8.28377 47.8727 8.69975L48.4 10.5023C49.0578 10.0869 50.1064 9.74309 51.0986 9.74309C52.7406 9.73853 53.0095 10.6729 53.0095 11.2709V11.4125C49.4303 11.4072 47.1677 12.6466 47.1677 15.1712C47.1677 16.7139 48.3201 18.1588 50.3233 18.1588C51.5541 18.1588 52.5851 17.6675 53.202 16.8797H53.263C53.263 16.8797 53.6712 18.5901 55.925 17.9357C55.8073 17.2244 55.7687 16.4651 55.7687 15.5521L55.7684 12.032M0 4.76365C0 4.76365 2.33894 14.3477 2.71243 15.9031C3.14812 17.7186 3.93335 18.387 6.19621 17.9357L7.65658 11.994C8.02689 10.5174 8.27472 9.46464 8.51333 7.96411H8.55486C8.72238 9.48053 8.96003 10.522 9.26476 11.9989C9.26476 11.9989 9.85895 14.6965 10.1638 16.1129C10.4689 17.5288 11.3183 18.4218 13.535 17.9357L17.015 4.76323H14.2062L13.0176 10.4586C12.698 12.1157 12.4083 13.4121 12.1848 14.9278H12.145C11.9419 13.4254 11.6833 12.1819 11.3587 10.567L10.1222 4.76323H7.19515L5.87178 10.4207C5.49723 12.1403 5.14599 13.5283 4.92349 14.9935H4.88301C4.65458 13.6138 4.35049 11.8686 4.02139 10.2048C4.02139 10.2048 3.23574 6.15812 2.95941 4.76323L0 4.76365ZM22.3282 14.4016C22.3282 14.5838 22.312 14.7718 22.2613 14.9369C22.0547 15.6225 21.3444 16.2023 20.4563 16.2023C19.7157 16.2023 19.1284 15.7816 19.1284 14.8932C19.1284 13.5335 20.6246 13.158 22.3285 13.1674L22.3282 14.4015V14.4016ZM25 12.032C25 9.78992 24.042 7.81705 20.8055 7.81705C19.1434 7.81705 17.8235 8.28377 17.1041 8.69975L17.6307 10.5023C18.2885 10.0869 19.337 9.74309 20.3296 9.74309C21.9727 9.73853 22.2416 10.6729 22.2416 11.2709V11.4125C18.6609 11.4072 16.3994 12.6466 16.3994 15.1712C16.3994 16.7139 17.5511 18.1588 19.5528 18.1588C20.7854 18.1588 21.8157 17.6675 22.4334 16.8797H22.4936C22.4936 16.8797 22.903 18.5901 25.1562 17.9357C25.0384 17.2244 25 16.4651 25 15.5521V12.032ZM29.4592 15.1396V4.76365H26.7839V17.9361H29.4592V15.1396ZM64.4577 4.76365V14.4807C64.4577 15.8211 64.7104 16.7591 65.2492 17.3331C65.7213 17.835 66.497 18.1599 67.4273 18.1599C68.2185 18.1599 68.9964 18.0089 69.3636 17.8728L69.329 15.7827C69.0559 15.8494 68.7423 15.9035 68.3129 15.9035C67.4013 15.9035 67.0965 15.3195 67.0965 14.1168V10.3988H69.4262V7.87818H67.0965V4.76365H64.4577ZM57.5522 8.0405V17.9361H60.312V12.8694C60.312 12.5955 60.3285 12.3569 60.3719 12.1386C60.576 11.0767 61.3876 10.3988 62.5535 10.3988C62.873 10.3988 63.1018 10.4336 63.3496 10.4688V7.87818C63.1416 7.83675 63.0005 7.81737 62.7417 7.81737C61.7119 7.81737 60.5401 8.48191 60.0484 9.90742H59.9738V8.0405H57.5522ZM31.3325 8.0405V17.9361H34.0213V12.1333C34.0213 11.861 34.0533 11.573 34.1476 11.3234C34.3704 10.7392 34.9142 10.0549 35.7819 10.0549C36.8674 10.0549 37.3743 10.9722 37.3743 12.296V17.9354H40.0609V12.0619C40.0609 11.8021 40.0964 11.4889 40.1732 11.2598C40.3938 10.5949 40.9796 10.0542 41.7863 10.0542C42.8862 10.0542 43.4142 10.9553 43.4142 12.5135V17.9351H46.1027V12.1065C46.1027 9.03309 44.542 7.81641 42.7799 7.81641C42.0003 7.81641 41.3843 8.01169 40.8272 8.35307C40.3594 8.64127 39.9398 9.04961 39.5738 9.58638H39.534C39.1091 8.51995 38.1095 7.81694 36.8068 7.81694C35.1332 7.81694 34.381 8.66532 33.9248 9.38475H33.8847V8.04019H31.3325" fill="#1A75CF"/>
</svg>
